<?xml version="1.0" encoding="UTF-8" standalone="no"?>
<!-- Created with Inkscape (http://www.inkscape.org/) -->

<svg
   xmlns:dc="http://purl.org/dc/elements/1.1/"
   xmlns:cc="http://creativecommons.org/ns#"
   xmlns:rdf="http://www.w3.org/1999/02/22-rdf-syntax-ns#"
   xmlns:svg="http://www.w3.org/2000/svg"
   xmlns="http://www.w3.org/2000/svg"
   xmlns:sodipodi="http://sodipodi.sourceforge.net/DTD/sodipodi-0.dtd"
   xmlns:inkscape="http://www.inkscape.org/namespaces/inkscape"
   version="1.1"
   id="svg10"
   xml:space="preserve"
   width="158.74133"
   height="158.73999"
   viewBox="0 0 158.74133 158.73999"
   sodipodi:docname="086426_encart_chls_v07-18.svg"
   inkscape:version="0.92.3 (2405546, 2018-03-11)"><metadata
     id="metadata16"><rdf:RDF><cc:Work
         rdf:about=""><dc:format>image/svg+xml</dc:format><dc:type
           rdf:resource="http://purl.org/dc/dcmitype/StillImage" /><dc:title></dc:title></cc:Work></rdf:RDF></metadata><defs
     id="defs14"><clipPath
       clipPathUnits="userSpaceOnUse"
       id="clipPath110"><path
         d="m 595.275,382.677 h 595.276 V 726.101 H 595.275 Z"
         id="path108"
         inkscape:connector-curvature="0" /></clipPath><clipPath
       clipPathUnits="userSpaceOnUse"
       id="clipPath136"><path
         d="m 595.275,382.677 h 595.276 V 726.101 H 595.275 Z"
         id="path134"
         inkscape:connector-curvature="0" /></clipPath><clipPath
       clipPathUnits="userSpaceOnUse"
       id="clipPath156"><path
         d="m 595.275,382.677 h 595.276 V 726.101 H 595.275 Z"
         id="path154"
         inkscape:connector-curvature="0" /></clipPath><clipPath
       clipPathUnits="userSpaceOnUse"
       id="clipPath176"><path
         d="m 595.275,382.677 h 595.276 V 726.101 H 595.275 Z"
         id="path174"
         inkscape:connector-curvature="0" /></clipPath><clipPath
       clipPathUnits="userSpaceOnUse"
       id="clipPath196"><path
         d="m 595.275,382.677 h 595.276 V 726.101 H 595.275 Z"
         id="path194"
         inkscape:connector-curvature="0" /></clipPath><clipPath
       clipPathUnits="userSpaceOnUse"
       id="clipPath216"><path
         d="m 595.275,382.677 h 595.276 V 726.101 H 595.275 Z"
         id="path214"
         inkscape:connector-curvature="0" /></clipPath><clipPath
       clipPathUnits="userSpaceOnUse"
       id="clipPath236"><path
         d="m 595.275,382.677 h 595.276 V 726.101 H 595.275 Z"
         id="path234"
         inkscape:connector-curvature="0" /></clipPath><clipPath
       clipPathUnits="userSpaceOnUse"
       id="clipPath262"><path
         d="m 595.275,382.677 h 595.276 V 726.101 H 595.275 Z"
         id="path260"
         inkscape:connector-curvature="0" /></clipPath><clipPath
       clipPathUnits="userSpaceOnUse"
       id="clipPath288"><path
         d="m 870.257,695.757 h 32.752 v 5.395 h -32.752 z"
         id="path286"
         inkscape:connector-curvature="0" /></clipPath><clipPath
       clipPathUnits="userSpaceOnUse"
       id="clipPath304"><path
         d="m 595.275,382.677 h 595.276 V 726.101 H 595.275 Z"
         id="path302"
         inkscape:connector-curvature="0" /></clipPath><clipPath
       clipPathUnits="userSpaceOnUse"
       id="clipPath318"><path
         d="m 595.275,382.677 h 595.276 V 726.101 H 595.275 Z"
         id="path316"
         inkscape:connector-curvature="0" /></clipPath><clipPath
       clipPathUnits="userSpaceOnUse"
       id="clipPath334"><path
         d="m 595.275,382.677 h 595.276 V 726.101 H 595.275 Z"
         id="path332"
         inkscape:connector-curvature="0" /></clipPath><clipPath
       clipPathUnits="userSpaceOnUse"
       id="clipPath438"><path
         d="m 595.275,382.677 h 595.276 V 726.101 H 595.275 Z"
         id="path436"
         inkscape:connector-curvature="0" /></clipPath><clipPath
       clipPathUnits="userSpaceOnUse"
       id="clipPath458"><path
         d="m 595.275,382.677 h 595.276 V 726.101 H 595.275 Z"
         id="path456"
         inkscape:connector-curvature="0" /></clipPath><clipPath
       clipPathUnits="userSpaceOnUse"
       id="clipPath626"><path
         d="M 0,0 H 1190.551 V 841.89 H 0 Z"
         id="path624"
         inkscape:connector-curvature="0" /></clipPath><clipPath
       clipPathUnits="userSpaceOnUse"
       id="clipPath668"><path
         d="M 0,0 H 1190.551 V 841.89 H 0 Z"
         id="path666"
         inkscape:connector-curvature="0" /></clipPath><clipPath
       clipPathUnits="userSpaceOnUse"
       id="clipPath694"><path
         d="m 595.275,295.342 h 228.473 v 87.335 H 595.275 Z"
         id="path692"
         inkscape:connector-curvature="0" /></clipPath><clipPath
       clipPathUnits="userSpaceOnUse"
       id="clipPath1578"><path
         d="M 0,0 H 1190.551 V 841.89 H 0 Z"
         id="path1576"
         inkscape:connector-curvature="0" /></clipPath><clipPath
       clipPathUnits="userSpaceOnUse"
       id="clipPath1624"><path
         d="m 240.944,139.182 h 49.464 v 49.463 h -49.464 z"
         id="path1622"
         inkscape:connector-curvature="0" /></clipPath><clipPath
       clipPathUnits="userSpaceOnUse"
       id="clipPath1654"><path
         d="M 0,0 H 1190.551 V 841.89 H 0 Z"
         id="path1652"
         inkscape:connector-curvature="0" /></clipPath><clipPath
       clipPathUnits="userSpaceOnUse"
       id="clipPath1666"><path
         d="m 392.583,300.599 h 49.463 v 49.463 h -49.463 z"
         id="path1664"
         inkscape:connector-curvature="0" /></clipPath><clipPath
       clipPathUnits="userSpaceOnUse"
       id="clipPath1678"><path
         d="M 0,0 H 1190.551 V 841.89 H 0 Z"
         id="path1676"
         inkscape:connector-curvature="0" /></clipPath><clipPath
       clipPathUnits="userSpaceOnUse"
       id="clipPath1708"><path
         d="M 0,0 H 1190.551 V 841.89 H 0 Z"
         id="path1706"
         inkscape:connector-curvature="0" /></clipPath><clipPath
       clipPathUnits="userSpaceOnUse"
       id="clipPath1774"><path
         d="M 0,0 H 1190.551 V 841.89 H 0 Z"
         id="path1772"
         inkscape:connector-curvature="0" /></clipPath><clipPath
       clipPathUnits="userSpaceOnUse"
       id="clipPath1798"><path
         d="M 0,0 H 1190.551 V 841.89 H 0 Z"
         id="path1796"
         inkscape:connector-curvature="0" /></clipPath><clipPath
       clipPathUnits="userSpaceOnUse"
       id="clipPath1812"><path
         d="m 440.683,70.209 h 49.463 v 49.464 h -49.463 z"
         id="path1810"
         inkscape:connector-curvature="0" /></clipPath><clipPath
       clipPathUnits="userSpaceOnUse"
       id="clipPath1824"><path
         d="M 0,0 H 1190.551 V 841.89 H 0 Z"
         id="path1822"
         inkscape:connector-curvature="0" /></clipPath><clipPath
       clipPathUnits="userSpaceOnUse"
       id="clipPath1856"><path
         d="m 191.481,237.804 h 49.464 v 49.463 h -49.464 z"
         id="path1854"
         inkscape:connector-curvature="0" /></clipPath><clipPath
       clipPathUnits="userSpaceOnUse"
       id="clipPath1868"><path
         d="M 0,0 H 1190.551 V 841.89 H 0 Z"
         id="path1866"
         inkscape:connector-curvature="0" /></clipPath><clipPath
       clipPathUnits="userSpaceOnUse"
       id="clipPath1916"><path
         d="m 440.553,201.612 h 49.464 v 49.464 h -49.464 z"
         id="path1914"
         inkscape:connector-curvature="0" /></clipPath><clipPath
       clipPathUnits="userSpaceOnUse"
       id="clipPath1928"><path
         d="m 191.481,89.718 h 49.463 v 49.463 h -49.463 z"
         id="path1926"
         inkscape:connector-curvature="0" /></clipPath><clipPath
       clipPathUnits="userSpaceOnUse"
       id="clipPath1940"><path
         d="m 191.481,40.324 h 49.463 v 49.463 h -49.463 z"
         id="path1938"
         inkscape:connector-curvature="0" /></clipPath><clipPath
       clipPathUnits="userSpaceOnUse"
       id="clipPath1996"><path
         d="M 0,0 H 1190.551 V 841.89 H 0 Z"
         id="path1994"
         inkscape:connector-curvature="0" /></clipPath><clipPath
       clipPathUnits="userSpaceOnUse"
       id="clipPath2120"><path
         d="M 0,0 H 1190.551 V 841.89 H 0 Z"
         id="path2118"
         inkscape:connector-curvature="0" /></clipPath><clipPath
       clipPathUnits="userSpaceOnUse"
       id="clipPath2134"><path
         d="M 0,0 H 1190.551 V 841.89 H 0 Z"
         id="path2132"
         inkscape:connector-curvature="0" /></clipPath><clipPath
       clipPathUnits="userSpaceOnUse"
       id="clipPath2148"><path
         d="M 0,0 H 1190.551 V 841.89 H 0 Z"
         id="path2146"
         inkscape:connector-curvature="0" /></clipPath><clipPath
       clipPathUnits="userSpaceOnUse"
       id="clipPath2166"><path
         d="M 0,0 H 1190.551 V 841.89 H 0 Z"
         id="path2164"
         inkscape:connector-curvature="0" /></clipPath><clipPath
       clipPathUnits="userSpaceOnUse"
       id="clipPath2182"><path
         d="M 0,0 H 1190.551 V 841.89 H 0 Z"
         id="path2180"
         inkscape:connector-curvature="0" /></clipPath></defs><sodipodi:namedview
     pagecolor="#ffffff"
     bordercolor="#666666"
     borderopacity="1"
     objecttolerance="10"
     gridtolerance="10"
     guidetolerance="10"
     inkscape:pageopacity="0"
     inkscape:pageshadow="2"
     inkscape:window-width="1920"
     inkscape:window-height="1018"
     id="namedview12"
     showgrid="false"
     fit-margin-top="0"
     fit-margin-left="0"
     fit-margin-right="0"
     fit-margin-bottom="0"
     inkscape:zoom="3.0859138"
     inkscape:cx="81.311724"
     inkscape:cy="63.092693"
     inkscape:window-x="-8"
     inkscape:window-y="-8"
     inkscape:window-maximized="1"
     inkscape:current-layer="g18" /><g
     id="g18"
     inkscape:groupmode="layer"
     inkscape:label="086426_encart_chls_v07-18.pdf"
     transform="matrix(1.3333333,0,0,-1.3333333,-1428.6613,1122.52)"><path
       d="m 1071.496,722.835 h 119.056 V 841.89 h -119.056 z"
       style="fill:#2cb9f1;fill-opacity:1;fill-rule:nonzero;stroke:none"
       id="path618"
       inkscape:connector-curvature="0" /><g
       id="g620"><g
         id="g622"
         clip-path="url(#clipPath626)"><g
           id="g628"
           transform="translate(1141.0385,809.4522)"><path
             d="m 0,0 h -20.03 c -1.461,0 -2.645,-1.184 -2.645,-2.645 v -30.439 c 0,-1.462 1.184,-2.647 2.645,-2.647 H 0 c 1.461,0 2.645,1.185 2.645,2.647 V -2.645 C 2.645,-1.184 1.461,0 0,0 m -0.926,-25.435 h -7.343 v -3.643 h 7.343 v -3.537 H -18.88 v 3.484 h 7.021 v 3.644 c 0,0 -4.555,-0.375 -6.968,4.073 0,0 -1.607,2.787 -0.16,6.323 0,0 0.965,2.52 3.376,3.699 l -3.805,6.914 3.108,1.661 7.342,-13.452 4.717,2.519 1.661,-3.055 -6.323,-3.483 c 0,0 -1.448,-0.805 -2.413,0.963 l -2.625,4.824 c 0,0 -3.002,-1.447 -1.823,-5.037 0,0 1.019,-2.465 3.484,-2.465 h 11.362 z"
             style="fill:#ffffff;fill-opacity:1;fill-rule:nonzero;stroke:none"
             id="path630"
             inkscape:connector-curvature="0" /></g><g
           id="g632"
           transform="translate(1085.5164,761.3152)"><path
             d="M 0,0 V 2.798 H -0.864 V -4.141 H 0 v 3.332 H 3.305 V -4.141 H 4.169 V 2.798 H 3.305 V 0 Z m 7.428,0.294 c -1.289,0 -2.301,-0.992 -2.301,-2.291 0,-1.298 1.012,-2.291 2.301,-2.291 1.289,0 2.3,0.993 2.3,2.291 0,1.299 -1.011,2.291 -2.3,2.291 m 0,-0.79 c 0.819,0 1.473,-0.681 1.473,-1.501 0,-0.81 -0.654,-1.5 -1.473,-1.5 -0.82,0 -1.473,0.69 -1.473,1.5 0,0.82 0.653,1.501 1.473,1.501 m 5.641,0.037 c -0.229,0.469 -0.652,0.753 -1.178,0.753 -0.699,0 -1.269,-0.551 -1.269,-1.25 0,-0.589 0.349,-0.829 0.827,-1.087 l 0.811,-0.432 c 0.193,-0.129 0.304,-0.24 0.304,-0.47 0,-0.368 -0.304,-0.608 -0.654,-0.608 -0.396,0 -0.608,0.231 -0.783,0.553 L 10.42,-3.322 c 0.23,-0.607 0.864,-0.966 1.49,-0.966 0.801,0 1.481,0.607 1.481,1.426 0,0.681 -0.487,0.994 -0.993,1.224 -0.507,0.231 -1.004,0.396 -1.004,0.774 0,0.239 0.221,0.423 0.451,0.423 0.24,0 0.452,-0.165 0.553,-0.377 z m 3.397,-3.094 c -0.875,0 -1.363,0.755 -1.363,1.566 0,0.801 0.506,1.546 1.363,1.546 0.893,0 1.399,-0.709 1.399,-1.546 0,-0.847 -0.497,-1.566 -1.399,-1.566 m -1.317,3.719 h -0.827 v -6.773 h 0.827 v 3.137 h 0.018 c 0.332,-0.487 0.857,-0.818 1.464,-0.818 1.326,0 2.061,1.094 2.061,2.328 0,1.179 -0.781,2.254 -2.024,2.254 -0.644,0 -1.16,-0.33 -1.501,-0.845 h -0.018 z m 5.55,0 H 19.872 V -4.14 h 0.827 z m -0.414,2.549 c -0.312,0 -0.57,-0.257 -0.57,-0.579 0,-0.313 0.258,-0.561 0.57,-0.561 0.313,0 0.57,0.248 0.57,0.561 0,0.322 -0.257,0.579 -0.57,0.579 M 25.374,0.01 c -0.331,0.193 -0.754,0.284 -1.141,0.284 -1.325,0 -2.355,-0.983 -2.355,-2.318 0,-1.289 1.039,-2.264 2.309,-2.264 0.433,0 0.81,0.083 1.187,0.285 v 1.058 c -0.313,-0.35 -0.699,-0.571 -1.178,-0.571 -0.874,0 -1.491,0.645 -1.491,1.529 0,0.791 0.626,1.51 1.436,1.51 0.497,0 0.902,-0.203 1.233,-0.58 z m 4.86,-2.135 v 0.129 c 0,1.279 -0.645,2.29 -2.016,2.29 -1.39,0 -2.097,-0.993 -2.097,-2.318 0,-1.271 0.799,-2.264 2.115,-2.264 0.838,0 1.593,0.432 1.998,1.178 l -0.7,0.396 c -0.313,-0.516 -0.653,-0.839 -1.288,-0.839 -0.792,0 -1.289,0.691 -1.298,1.428 z m -3.24,0.625 c 0.101,0.617 0.58,1.078 1.224,1.078 0.663,0 1.086,-0.433 1.187,-1.078 z m 6.535,1.041 c -0.23,0.469 -0.653,0.753 -1.178,0.753 -0.7,0 -1.269,-0.551 -1.269,-1.25 0,-0.589 0.349,-0.829 0.827,-1.087 l 0.81,-0.432 c 0.194,-0.129 0.304,-0.24 0.304,-0.47 0,-0.368 -0.304,-0.608 -0.654,-0.608 -0.396,0 -0.607,0.231 -0.782,0.553 l -0.708,-0.322 c 0.23,-0.607 0.864,-0.966 1.49,-0.966 0.802,0 1.482,0.607 1.482,1.426 0,0.681 -0.487,0.994 -0.993,1.224 -0.507,0.231 -1.004,0.396 -1.004,0.774 0,0.239 0.221,0.423 0.451,0.423 0.239,0 0.451,-0.165 0.553,-0.377 z m 9.304,2.936 c -0.524,0.321 -1.141,0.468 -1.749,0.468 -2.043,0 -3.689,-1.6 -3.689,-3.653 0,-2.007 1.637,-3.58 3.616,-3.58 0.607,0 1.288,0.175 1.822,0.487 v 1.022 c -0.515,-0.461 -1.169,-0.718 -1.85,-0.718 -1.546,0 -2.724,1.298 -2.724,2.816 0,1.538 1.187,2.836 2.743,2.836 0.653,0 1.334,-0.24 1.831,-0.681 z M 44.968,0.166 H 44.141 V -4.14 h 0.827 z m -0.413,2.549 c -0.313,0 -0.57,-0.257 -0.57,-0.579 0,-0.313 0.257,-0.561 0.57,-0.561 0.312,0 0.57,0.248 0.57,0.561 0,0.322 -0.258,0.579 -0.57,0.579 m 2.163,-2.549 h -0.929 l 2.162,-4.454 2.171,4.454 h -0.929 l -1.242,-2.687 z m 5.052,0 H 50.943 V -4.14 h 0.827 z m -0.414,2.549 c -0.312,0 -0.57,-0.257 -0.57,-0.579 0,-0.313 0.258,-0.561 0.57,-0.561 0.313,0 0.57,0.248 0.57,0.561 0,0.322 -0.257,0.579 -0.57,0.579 m 2.788,1.132 h -0.827 v -7.988 h 0.827 z m 3.765,-4.306 c -0.23,0.469 -0.653,0.753 -1.178,0.753 -0.7,0 -1.269,-0.551 -1.269,-1.25 0,-0.589 0.349,-0.829 0.827,-1.087 l 0.81,-0.432 c 0.194,-0.129 0.304,-0.24 0.304,-0.47 0,-0.368 -0.304,-0.608 -0.654,-0.608 -0.396,0 -0.607,0.231 -0.782,0.553 l -0.708,-0.322 c 0.23,-0.607 0.864,-0.966 1.49,-0.966 0.802,0 1.482,0.607 1.482,1.426 0,0.681 -0.487,0.994 -0.993,1.224 -0.507,0.231 -1.005,0.396 -1.005,0.774 0,0.239 0.222,0.423 0.452,0.423 0.239,0 0.451,-0.165 0.553,-0.377 z m 6.019,-3.094 c -0.875,0 -1.363,0.755 -1.363,1.566 0,0.801 0.507,1.546 1.363,1.546 0.893,0 1.4,-0.709 1.4,-1.546 0,-0.847 -0.498,-1.566 -1.4,-1.566 m 1.354,-0.588 h 0.827 v 7.988 h -0.827 v -4.398 h -0.019 c -0.341,0.515 -0.856,0.845 -1.501,0.845 -1.243,0 -2.024,-1.075 -2.024,-2.254 0,-1.234 0.735,-2.328 2.061,-2.328 0.608,0 1.133,0.331 1.464,0.818 h 0.019 z m 5.87,2.016 v 0.129 c 0,1.279 -0.644,2.29 -2.015,2.29 -1.39,0 -2.098,-0.993 -2.098,-2.318 0,-1.271 0.8,-2.264 2.116,-2.264 0.838,0 1.592,0.432 1.997,1.178 l -0.699,0.396 c -0.313,-0.516 -0.654,-0.839 -1.289,-0.839 -0.791,0 -1.288,0.691 -1.297,1.428 z M 67.913,-1.5 c 0.101,0.617 0.579,1.078 1.224,1.078 0.662,0 1.086,-0.433 1.187,-1.078 z m 7.933,4.298 h -0.864 v -6.939 h 2.972 v 0.791 h -2.108 z m 3.866,-6.203 -1.693,-3.202 h 0.939 l 3.487,6.773 h -0.929 l -1.353,-2.733 -1.454,2.733 h -0.966 z m 5.274,3.699 c -1.289,0 -2.3,-0.992 -2.3,-2.291 0,-1.298 1.011,-2.291 2.3,-2.291 1.289,0 2.3,0.993 2.3,2.291 0,1.299 -1.011,2.291 -2.3,2.291 m 0,-0.79 c 0.819,0 1.473,-0.681 1.473,-1.501 0,-0.81 -0.654,-1.5 -1.473,-1.5 -0.82,0 -1.473,0.69 -1.473,1.5 0,0.82 0.653,1.501 1.473,1.501 m 4.067,0.662 h -0.827 v -4.307 h 0.827 v 1.979 c 0,0.783 0,1.721 1.068,1.721 0.848,0 0.949,-0.497 0.949,-1.233 v -2.467 h 0.827 v 2.568 c 0,1.05 -0.312,1.867 -1.527,1.867 -0.525,0 -1.041,-0.248 -1.298,-0.707 h -0.019 z"
             style="fill:#ffffff;fill-opacity:1;fill-rule:nonzero;stroke:none"
             id="path634"
             inkscape:connector-curvature="0" /></g></g></g><g
       id="g1700"
       transform="translate(409.9101,321.3234)" /></g></svg>