<?xml version="1.0" encoding="utf-8"?>
<!-- Generator: Adobe Illustrator 19.0.0, SVG Export Plug-In . SVG Version: 6.00 Build 0)  -->
<svg version="1.1" id="layer" xmlns="http://www.w3.org/2000/svg" xmlns:xlink="http://www.w3.org/1999/xlink" x="0px" y="0px"
	 viewBox="-153 -46 652 652" style="enable-background:new -153 -46 652 652;" xml:space="preserve">
<style type="text/css">
	.st0{fill:#00A0E9;}
	.st1{fill-rule:evenodd;clip-rule:evenodd;}
	.st2{fill:#FAC109;}
	.st3{fill:#A5CB0B;}
</style>
<g>
	<path class="st0" d="M325,269.5c-3.3-3.4-5.5-7.4-6.6-11.9c17.6-3,32.6-8.4,40.8-16.4c10.3-10,8.5-36.5-1-58.8
		c5.7-3.2,11.3-4.8,16.2-4c42,6.7,111.4,107.9,88.4,136.1C450.7,329.4,351.6,296.9,325,269.5"/>
</g>
<path d="M-32.4,244.5l-13.7,58.4h-5.7l-13.7-58.4h5.9l7.8,35.5c0.6,2.7,1.1,5.4,1.6,8.1c0.5,2.6,0.9,5.1,1.2,7.3
	c0.3-2.2,0.8-4.6,1.3-7.3c0.5-2.7,1.1-5.3,1.7-8l7.8-35.5H-32.4"/>
<path class="st1" d="M-16.4,246.7c0,1.2-0.4,2.1-1.1,2.9c-0.7,0.8-1.6,1.2-2.7,1.2c-1.2,0-2.1-0.4-2.9-1.2s-1.2-1.8-1.2-2.9
	c0-1.2,0.4-2.1,1.2-2.9s1.7-1.2,2.9-1.2c1.1,0,2,0.4,2.7,1.2C-16.8,244.6-16.4,245.5-16.4,246.7 M-17.6,302.9h-5.7v-43.8h5.7V302.9z
	"/>
<polyline points="0,302.9 -5.6,302.9 -5.6,245.4 0,242.1 0,302.9 "/>
<polyline points="17.7,302.9 12,302.9 12,245.4 17.7,242.1 17.7,302.9 "/>
<path class="st1" d="M55.5,280.7c0,0.9,0,1.7-0.1,2.3H33.2c0.2,4.8,1,8.6,2.5,11.3c1.4,2.8,3.5,4.2,6.2,4.3c1.7,0,3.3-0.4,4.7-1.1
	c1.4-0.8,2.8-2,4.3-3.8l3.4,3.7c-1.9,2.1-3.8,3.7-5.8,4.8c-2.1,1.1-4.4,1.7-6.9,1.7c-3.9,0-7.2-1.8-9.8-5.5c-2.6-3.7-4-9.5-4.1-17.2
	c0.1-7.3,1.3-12.9,3.9-16.9c2.5-3.9,6-5.9,10.3-6c4.5,0.1,7.9,2.1,10.2,6C54.3,268.2,55.5,273.7,55.5,280.7 M50,277.9
	c-0.2-4.3-0.9-7.8-2.3-10.4c-1.4-2.6-3.4-4-6.1-4.1c-2.3,0-4.2,1.2-5.7,3.5c-1.5,2.3-2.4,6-2.6,10.9H50z"/>
<path class="st1" d="M108.4,302.9h-5.7v-3.8c-1.2,1.3-2.5,2.4-4.1,3.3c-1.6,0.9-3.4,1.4-5.5,1.4c-4,0-7.1-1.9-9.2-5.7
	c-2.1-3.8-3.2-9.4-3.2-16.7c0-7.5,1.2-13.3,3.4-17.2c2.2-4,5.4-5.9,9.5-6c1.9,0,3.6,0.4,5.1,1.2c1.5,0.8,2.8,1.8,3.9,3v-17l5.7-3.3
	V302.9 M102.7,294.3v-26.5c-1.1-1.4-2.4-2.4-3.8-3.3c-1.4-0.8-3-1.2-4.8-1.2c-2.7,0.1-4.7,1.7-5.9,4.9c-1.2,3.2-1.8,7.5-1.8,13.1
	c0,11.7,2.7,17.5,8,17.4c1.6,0,3.1-0.4,4.4-1.2C100.3,296.7,101.5,295.7,102.7,294.3z"/>
<path class="st1" d="M145.7,280.7c0,0.9,0,1.7-0.1,2.3h-22.2c0.2,4.8,1,8.6,2.5,11.3c1.4,2.8,3.5,4.2,6.2,4.3c1.7,0,3.3-0.4,4.7-1.1
	c1.4-0.8,2.8-2,4.3-3.8l3.4,3.7c-1.9,2.1-3.8,3.7-5.8,4.8c-2.1,1.1-4.4,1.7-6.9,1.7c-3.9,0-7.2-1.8-9.8-5.5c-2.6-3.7-4-9.5-4.1-17.2
	c0.1-7.3,1.3-12.9,3.9-16.9c2.5-3.9,6-5.9,10.3-6c4.5,0.1,7.9,2.1,10.2,6C144.5,268.2,145.6,273.7,145.7,280.7 M140.1,277.9
	c-0.2-4.3-0.9-7.8-2.3-10.4c-1.4-2.6-3.4-4-6.1-4.1c-2.3,0-4.2,1.2-5.7,3.5c-1.5,2.3-2.4,6-2.6,10.9H140.1z"/>
<path d="M-69.6,402.5h-12.9l-27.2-60.3c-0.8-1.7-1.7-3.8-2.7-6.2c-1-2.5-2-4.8-3-7.1c-0.9-2.3-1.7-4-2.2-5.1
	c0.1,1.5,0.1,3.6,0.2,6.5c0,2.8,0.1,5.7,0.1,8.7c0,3,0,5.4,0,7.3v56.3h-15.4V289.9h15.8l24.3,53.5c0.8,1.7,1.7,3.8,2.7,6.2
	s2,4.8,3,7.1c0.9,2.3,1.7,4,2.2,5.2c-0.1-1.5-0.1-3.7-0.2-6.5c0-2.8-0.1-5.7-0.1-8.7c0-3,0-5.4,0-7.3v-49.5h15.4V402.5"/>
<path class="st1" d="M7.9,360c0,0.8,0,1.7,0,2.7c0,1-0.1,2-0.1,2.8h-44.2c0.5,8.3,2.2,14.4,4.9,18.2c2.8,3.9,6.4,5.7,11,5.7
	c3.4,0,6.3-0.5,8.5-1.4c2.2-1,4.5-2.6,6.8-4.8l9.5,9.8c-2.9,3.3-6.5,6-10.7,8c-4.2,2.1-9,3.2-14.4,3.2C-31,404-38.7,400.1-44,392.4
	c-5.3-7.7-7.9-18.3-8-31.7c0.1-14.8,2.9-25.9,8.3-33.3c5.4-7.4,12.7-11.1,21.7-11.1c8.6,0,15.7,3.6,21.2,10.8
	C4.8,334.3,7.7,345.3,7.9,360 M-7.9,352.1c-0.3-6.4-1.6-11.5-4.1-15.4c-2.5-3.9-5.9-5.9-10.2-6c-8-0.1-12.7,7-14.1,21.4H-7.9z"/>
<path d="M76.6,402.5H61.2v-5.8c-1.7,2.2-4,4-6.7,5.4c-2.8,1.4-6,2.1-9.6,2.1c-8,0-13.7-2.6-17.1-7.9c-3.4-5.3-5-13.2-4.9-23.8v-54.5
	h15.4V370c0,6.9,0.7,12,2.3,15.1c1.6,3.1,4.3,4.6,8.1,4.6c2.4,0,4.7-0.7,6.9-2c2.2-1.3,4.1-3.2,5.6-5.7v-63.8h15.4V402.5"/>
<g>
	<path d="M146,389.3c-2.7,4.5-6,8.1-9.8,10.8c-3.8,2.7-8.8,4.1-14.8,4.2c-8.9,0-16-3.5-21.3-10.7c-5.3-7.2-8-18.1-8.1-32.9
		c0.1-14.8,2.7-25.9,8-33.3c5.2-7.4,12.6-11.1,22.1-11.1c6,0.1,10.9,1.5,14.7,4.3c3.7,2.8,6.8,6.3,9.1,10.5l-11.1,9.6
		c-2.1-3.4-4.2-5.9-6.2-7.4c-2-1.5-4.3-2.3-7-2.2c-4.9,0.1-8.4,2.6-10.7,7.7c-2.2,5.1-3.4,12.3-3.3,21.6c0,9,1.1,16.1,3.4,21.2
		c2.3,5.1,6,7.8,11,7.9c2.5,0,4.8-0.7,6.8-2.2c2-1.5,4-3.9,6.1-7.1L146,389.3"/>
</g>
<path d="M214.5,402.5h-15.4v-51.9c0-6.9-0.7-12-2.3-15c-1.6-3.1-4.3-4.6-8.1-4.6c-2.4,0-4.7,0.7-6.9,2c-2.2,1.3-4,3.2-5.6,5.7v63.8
	h-15.4V293.3l15.4-8v38.6c1.7-2.2,4-4,6.8-5.4s6-2.1,9.6-2.2c8,0,13.7,2.6,17.1,7.9c3.4,5.3,5,13.2,4.9,23.8V402.5"/>
<g>
	<path class="st1" d="M283.1,307.6h-12.5l-12.4-14.2l-12.4,14.2h-12.2l16.4-25.7h16.7L283.1,307.6 M284,402.5h-15.4v-5.8
		c-4.2,5-10,7.5-17.4,7.6c-6.4,0-11.8-2.3-16.1-7c-4.4-4.7-6.7-11.8-6.9-21.3c0.1-9.2,2.7-16.1,7.7-20.7c5-4.6,11.6-6.9,19.8-7
		c5.2,0.1,9.5,1,12.9,2.7v-8.2c0-4.1-0.7-7.1-2.4-9.1c-1.7-2-4.5-3-8.5-3c-2.6,0-5.2,0.4-7.9,1.2c-2.6,0.8-5.5,2.2-8.7,4.1
		l-6.6-11.7c3.9-2.6,7.9-4.6,12.1-6c4.2-1.4,8.2-2.1,12.1-2.1c9-0.1,15.5,1.7,19.4,5.6c4,3.8,5.9,10.4,5.8,19.7V402.5z M268.6,382.4
		v-16.9c-1.8-1.1-3.6-1.9-5.6-2.4c-1.9-0.5-4.3-0.8-7.1-0.8c-3.7,0-6.6,1.1-8.8,3.2c-2.2,2.2-3.3,5.5-3.4,10.1c0,5,1,8.7,2.8,11.1
		c1.9,2.4,4.5,3.6,7.8,3.6C260.9,390.1,265.7,387.5,268.6,382.4z"/>
</g>
<path d="M337.2,386.1l-1.8,14.3c-3.6,2.5-8.2,3.8-13.8,3.9c-5.6,0-9.7-1.9-12.3-5.6c-2.6-3.7-3.9-9-3.9-15.9v-50.2h-9.2v-14.5h9.2
	v-24.6l15.4-8.2v32.8H337v14.5h-16.2v48.7c0,5.8,2.2,8.5,6.4,8.4C331.4,389.4,334.7,388.2,337.2,386.1"/>
<path class="st1" d="M410.3,360c0,0.8,0,1.7,0,2.7c0,1-0.1,2-0.1,2.8h-44.2c0.5,8.3,2.2,14.4,4.9,18.2c2.8,3.9,6.4,5.7,11,5.7
	c3.4,0,6.3-0.5,8.5-1.4c2.2-1,4.5-2.6,6.8-4.8l9.5,9.8c-2.9,3.3-6.5,6-10.7,8c-4.2,2.1-9,3.2-14.4,3.2c-10.1-0.2-17.8-4.1-23-11.8
	c-5.3-7.7-7.9-18.3-8-31.7c0.1-14.8,2.9-25.9,8.3-33.3c5.4-7.4,12.7-11.1,21.7-11.1c8.6,0,15.7,3.6,21.2,10.8
	C407.2,334.3,410.1,345.3,410.3,360 M394.5,352.1c-0.3-6.4-1.6-11.5-4.1-15.4c-2.5-3.9-5.9-5.9-10.2-6c-8-0.1-12.7,7-14.2,21.4
	H394.5z"/>
<polyline points="441.8,402.5 426.3,402.5 426.3,293.3 441.8,285.3 441.8,402.5 "/>
<path class="st2" d="M358.3,182.4c9.5,22.4,11.3,48.9,1,58.8c-8.3,8-23.2,13.4-40.8,16.4C311.9,232.7,336.1,194.9,358.3,182.4"/>
<g>
	<path class="st3" d="M316.2,147c18.1-2.3,33.3,14.8,42,35.4c-22.2,12.5-46.4,50.3-39.9,75.2c-47.7,8-114.7-1.9-121-27.6
		C192.8,211.3,278.4,151.8,316.2,147"/>
</g>
</svg>
